<svg xmlns="http://www.w3.org/2000/svg" viewBox="0 0 512 512" width="512" height="512">
  <!-- Speed lines -->
  <path d="M 20 100 Q 80 100 120 100" stroke="#5b6b8c" stroke-width="12" fill="none" stroke-linecap="round"/>
  <path d="M 20 150 Q 100 150 140 150" stroke="#5b6b8c" stroke-width="12" fill="none" stroke-linecap="round"/>
  <path d="M 20 200 Q 90 200 130 200" stroke="#5b6b8c" stroke-width="12" fill="none" stroke-linecap="round"/>
  
  <!-- Basketball -->
  <circle cx="320" cy="150" r="120" fill="#ffb27d" stroke="#5b6b8c" stroke-width="10"/>
  <path d="M 200 150 Q 320 100 440 150" stroke="#5b6b8c" stroke-width="8" fill="none"/>
  <path d="M 200 150 Q 320 200 440 150" stroke="#5b6b8c" stroke-width="8" fill="none"/>
  <path d="M 320 30 Q 270 150 320 270" stroke="#5b6b8c" stroke-width="8" fill="none"/>
  <path d="M 320 30 Q 370 150 320 270" stroke="#5b6b8c" stroke-width="8" fill="none"/>
  
  <!-- Hoop pole -->
  <line x1="470" y1="60" x2="470" y2="450" stroke="#5b6b8c" stroke-width="14"/>
  <line x1="480" y1="60" x2="480" y2="450" stroke="#5b6b8c" stroke-width="14"/>
  
  <!-- Backboard -->
  <rect x="360" y="270" width="120" height="10" fill="#5b6b8c" rx="2"/>
  
  <!-- Rim -->
  <ellipse cx="400" cy="280" rx="80" ry="12" fill="none" stroke="#5b6b8c" stroke-width="10"/>
  
  <!-- Net -->
  <path d="M 320 280 L 310 320" stroke="#5b6b8c" stroke-width="6"/>
  <path d="M 340 280 L 335 320" stroke="#5b6b8c" stroke-width="6"/>
  <path d="M 360 280 L 360 320" stroke="#5b6b8c" stroke-width="6"/>
  <path d="M 380 280 L 385 320" stroke="#5b6b8c" stroke-width="6"/>
  <path d="M 400 280 L 410 320" stroke="#5b6b8c" stroke-width="6"/>
  <path d="M 420 280 L 435 320" stroke="#5b6b8c" stroke-width="6"/>
  <path d="M 440 280 L 460 320" stroke="#5b6b8c" stroke-width="6"/>
  <path d="M 460 280 L 485 320" stroke="#5b6b8c" stroke-width="6"/>
  <path d="M 480 280 L 490 320" stroke="#5b6b8c" stroke-width="6"/>
  
  <!-- Net cross pattern -->
  <path d="M 310 295 L 335 295 L 360 295 L 385 295 L 410 295 L 435 295 L 460 295 L 485 295 L 490 295" stroke="#5b6b8c" stroke-width="4" fill="none"/>
  <path d="M 310 310 L 335 310 L 360 310 L 385 310 L 410 310 L 435 310 L 460 310 L 485 310 L 490 310" stroke="#5b6b8c" stroke-width="4" fill="none"/>
</svg>
