<?xml version="1.0" encoding="UTF-8"?>
<svg version="1.1" xmlns="http://www.w3.org/2000/svg" width="200" height="200">
<path d="M0 0 C8.25217621 4.32672241 12.35028967 14.22411953 15.03515625 22.65625 C15.2892627 23.44660645 15.54336914 24.23696289 15.80517578 25.05126953 C20.20526977 39.17456794 23.88342353 59.29896743 17.05859375 73.21484375 C15.3851928 75.6385761 13.14254383 77.14460859 10.84765625 78.96875 C5.62145343 87.45096014 6.89007106 100.39423621 8.50390625 109.7890625 C10.88676803 118.97129712 15.13920002 127.09792863 20.1875 135.08984375 C22.77952688 139.23155218 23.55609666 142.09822216 22.84765625 146.96875 C21.23444904 150.02232079 19.81704723 152.20708566 17.09765625 154.34375 C12.60392118 155.59200974 8.64986958 155.75469927 4.40234375 153.90234375 C0.98776573 151.31791543 -0.89142229 148.35350793 -3.08984375 144.71875 C-3.52441895 144.00638184 -3.95899414 143.29401367 -4.40673828 142.56005859 C-11.83285019 130.05975932 -15.39516273 117.12768545 -18.15234375 102.96875 C-22.77143202 114.53906579 -21.91090006 125.07122216 -17.078125 136.51171875 C-15.62605824 140.36551617 -15.4332769 143.9177694 -16.15234375 147.96875 C-17.86894613 151.03821373 -19.96064983 153.37290304 -23.15234375 154.96875 C-25.359375 155.20703125 -25.359375 155.20703125 -27.96484375 155.28125 C-28.81691406 155.31863281 -29.66898438 155.35601562 -30.546875 155.39453125 C-34.09172743 154.81523752 -35.62680871 153.49428504 -38.15234375 150.96875 C-46.18747589 136.42898707 -47.88509638 118.44723238 -44.18359375 102.52734375 C-40.07055292 88.33423695 -30.52406058 77.21656122 -18.33984375 69.09375 C-16.15234375 67.96875 -16.15234375 67.96875 -14.15234375 67.96875 C-14.48234375 62.68875 -14.81234375 57.40875 -15.15234375 51.96875 C-17.42109375 53.0825 -19.68984375 54.19625 -22.02734375 55.34375 C-30.94392114 59.54513334 -38.56893361 61.09476117 -48.46484375 61.34375 C-49.14732178 61.37009521 -49.8297998 61.39644043 -50.53295898 61.42358398 C-54.05125114 61.43441483 -56.06508737 61.02110383 -59.1015625 59.19921875 C-61.15234375 56.96875 -61.15234375 56.96875 -61.74609375 54.93359375 C-61.61296272 52.0546352 -61.49174587 49.58765974 -60.08984375 47.03125 C-57.2145328 45.45446658 -54.38824572 45.30937126 -51.15234375 44.96875 C-49.81457151 44.65370346 -48.47982118 44.324689 -47.15234375 43.96875 C-48.36470703 43.73091797 -48.36470703 43.73091797 -49.6015625 43.48828125 C-60.85596388 41.03104766 -60.85596388 41.03104766 -64.15234375 35.96875 C-64.71484375 32.90625 -64.71484375 32.90625 -64.15234375 29.96875 C-62.28535774 27.4102877 -60.97138524 26.23014622 -57.94921875 25.265625 C-54.35956823 24.88460064 -51.58617275 25.65257215 -48.08984375 26.53125 C-40.48019919 28.24587551 -33.22122333 28.49841683 -26.078125 24.93359375 C-24.24907653 23.79090661 -24.24907653 23.79090661 -22.15234375 21.96875 C-22.31734375 21.47375 -22.48234375 20.97875 -22.65234375 20.46875 C-23.98375304 13.81170357 -23.3789841 8.96108207 -20.15234375 2.96875 C-14.6341129 -3.58414913 -7.45650789 -3.10328652 0 0 Z M-15.15234375 9.96875 C-14.15234375 11.96875 -14.15234375 11.96875 -14.15234375 11.96875 Z M-0.15234375 9.96875 C0.84765625 11.96875 0.84765625 11.96875 0.84765625 11.96875 Z M-0.15234375 15.96875 C0.84765625 17.96875 0.84765625 17.96875 0.84765625 17.96875 Z M-1.15234375 18.96875 C-0.15234375 20.96875 -0.15234375 20.96875 -0.15234375 20.96875 Z M-2.15234375 20.96875 C-1.15234375 22.96875 -1.15234375 22.96875 -1.15234375 22.96875 Z M-3.15234375 22.96875 C-2.15234375 24.96875 -2.15234375 24.96875 -2.15234375 24.96875 Z M-31.15234375 42.96875 C-27.15234375 43.96875 -27.15234375 43.96875 -27.15234375 43.96875 Z " fill="#FFFFFF" transform="translate(163.15234375,45.03125)"/>
<path d="M0 0 C5.77559823 2.90709399 9.68239255 7.30286697 11.79443359 13.43359375 C17.21380329 31.36851526 21.50119548 55.18068434 13.19140625 72.9453125 C11.34253477 75.88175544 9.76899556 78.15824105 7.06640625 80.3203125 C6.40640625 80.3203125 5.74640625 80.3203125 5.06640625 80.3203125 C5.59207745 99.32332651 11.04282356 113.64179681 23.2109375 128.3984375 C25.38586351 131.82337361 25.87338282 134.29035998 26.06640625 138.3203125 C24.67207558 141.94557225 23.13871497 144.8880681 20.06640625 147.3203125 C16.44709927 148.52674816 13.8740962 148.64299809 10.06640625 148.3203125 C-5.10979524 139.70898322 -13.32933484 119.31405398 -17.93359375 103.3203125 C-20.82688046 112.00017264 -18.84051958 120.94892512 -15.93359375 129.3203125 C-13.30173102 137.64083685 -13.30173102 137.64083685 -15.05859375 142.1953125 C-16.89821098 145.26134122 -17.94860673 146.49733828 -20.93359375 148.3203125 C-25.81626405 149.28717791 -29.81953791 148.88785038 -34.24609375 146.6328125 C-42.16316824 138.73816598 -43.96369038 124.16853976 -44.24609375 113.5078125 C-43.93323161 96.52123875 -37.58029995 82.59275162 -25.93359375 70.3203125 C-24.6167599 69.33943067 -23.28513437 68.37779227 -21.93359375 67.4453125 C-19.29982249 65.40155466 -18.95607479 64.43231386 -18.28125 61.0703125 C-18.02434256 57.80442071 -17.899582 54.59515789 -17.93359375 51.3203125 C-19.3959919 51.52191883 -20.8537094 51.75768254 -22.30859375 52.0078125 C-23.52675781 52.19923828 -23.52675781 52.19923828 -24.76953125 52.39453125 C-27.17308067 53.13148575 -27.17308067 53.13148575 -27.98046875 55.6953125 C-28.45226563 56.9946875 -28.45226563 56.9946875 -28.93359375 58.3203125 C-33.22382241 62.75483136 -37.86467225 64.74359408 -43.99609375 65.0078125 C-49.71691915 64.69444245 -53.71983628 63.21930736 -57.93359375 59.3203125 C-62.47672665 53.49578314 -63.76673859 48.5604585 -62.93359375 41.3203125 C-61.13346623 35.54961801 -58.08400227 31.56316231 -52.93359375 28.3203125 C-46.91878667 26.08653406 -41.95983486 25.88036488 -35.984375 28.2578125 C-32.79476844 29.91033247 -30.47784687 31.77605938 -27.93359375 34.3203125 C-27.93359375 34.9803125 -27.93359375 35.6403125 -27.93359375 36.3203125 C-24.96359375 35.6603125 -21.99359375 35.0003125 -18.93359375 34.3203125 C-19.24296875 33.1240625 -19.55234375 31.9278125 -19.87109375 30.6953125 C-22.147253 21.4776747 -23.88490227 11.97042463 -18.93359375 3.3203125 C-13.19841581 -2.27148599 -7.36232741 -2.58796964 0 0 Z M-8.93359375 6.3203125 C-8.93359375 6.6503125 -8.93359375 6.9803125 -8.93359375 7.3203125 C-6.95359375 7.3203125 -4.97359375 7.3203125 -2.93359375 7.3203125 C-2.93359375 6.9903125 -2.93359375 6.6603125 -2.93359375 6.3203125 C-4.91359375 6.3203125 -6.89359375 6.3203125 -8.93359375 6.3203125 Z M-14.93359375 13.3203125 C-13.93359375 16.3203125 -13.93359375 16.3203125 -13.93359375 16.3203125 Z M2.06640625 13.3203125 C3.06640625 16.3203125 3.06640625 16.3203125 3.06640625 16.3203125 Z M-13.93359375 17.3203125 C-12.93359375 20.3203125 -12.93359375 20.3203125 -12.93359375 20.3203125 Z M3.06640625 18.3203125 C3.06640625 21.6203125 3.06640625 24.9203125 3.06640625 28.3203125 C3.39640625 28.3203125 3.72640625 28.3203125 4.06640625 28.3203125 C4.06640625 25.0203125 4.06640625 21.7203125 4.06640625 18.3203125 C3.73640625 18.3203125 3.40640625 18.3203125 3.06640625 18.3203125 Z M-12.93359375 22.3203125 C-11.93359375 24.3203125 -11.93359375 24.3203125 -11.93359375 24.3203125 Z M-13.93359375 26.3203125 C-12.93359375 28.3203125 -12.93359375 28.3203125 -12.93359375 28.3203125 Z M2.06640625 29.3203125 C3.06640625 32.3203125 3.06640625 32.3203125 3.06640625 32.3203125 Z M1.06640625 33.3203125 C2.06640625 35.3203125 2.06640625 35.3203125 2.06640625 35.3203125 Z M0.06640625 35.3203125 C1.06640625 37.3203125 1.06640625 37.3203125 1.06640625 37.3203125 Z M-33.93359375 36.3203125 C-33.93359375 36.6503125 -33.93359375 36.9803125 -33.93359375 37.3203125 C-31.95359375 37.3203125 -29.97359375 37.3203125 -27.93359375 37.3203125 C-27.93359375 36.9903125 -27.93359375 36.6603125 -27.93359375 36.3203125 C-29.91359375 36.3203125 -31.89359375 36.3203125 -33.93359375 36.3203125 Z M-49.93359375 43.3203125 C-48.93359375 47.3203125 -48.93359375 47.3203125 -48.93359375 47.3203125 Z M-48.93359375 48.3203125 C-47.93359375 50.3203125 -47.93359375 50.3203125 -47.93359375 50.3203125 Z M-42.93359375 53.3203125 C-42.93359375 53.6503125 -42.93359375 53.9803125 -42.93359375 54.3203125 C-38.97359375 54.3203125 -35.01359375 54.3203125 -30.93359375 54.3203125 C-30.93359375 53.9903125 -30.93359375 53.6603125 -30.93359375 53.3203125 C-34.89359375 53.3203125 -38.85359375 53.3203125 -42.93359375 53.3203125 Z " fill="#FFFFFF" transform="translate(76.93359375,51.6796875)"/>
<path d="M0 0 C5.47817108 3.28690265 9.77290929 7.78317545 11.4453125 14.0546875 C12.22626456 22.09712366 10.88147148 27.6308965 6.1328125 34.3046875 C1.39192822 39.15582491 -2.23879522 40.25267519 -8.9296875 40.4921875 C-15.52832189 40.31933033 -20.17076181 39.14360428 -25.078125 34.6640625 C-29.71751505 29.56877863 -31.04818776 24.13410325 -30.8671875 17.42578125 C-30.1240984 11.78759274 -27.88102739 6.86155781 -23.5546875 3.1171875 C-16.50657414 -1.72839044 -8.27830502 -3.06322602 0 0 Z " fill="#FFFFFF" transform="translate(153.5546875,0.9453125)"/>
<path d="M0 0 C5.02399065 2.97106634 8.6782067 6.44534728 10.5703125 12.0546875 C12.24469659 19.70598696 11.73650851 25.56620193 7.5 32.1875 C3.5298167 37.24255897 -0.94497863 39.45555887 -7.1875 40.375 C-13.83519862 40.78984877 -19.09646744 39.31631021 -24.1875 35 C-29.59931355 28.47398954 -30.72672376 24.28184849 -30.66015625 15.7421875 C-30.01947529 9.65211904 -27.1334744 6.16742568 -22.8125 2.0625 C-15.92321117 -2.41553774 -7.62072005 -3.41466879 0 0 Z " fill="#FFFFFF" transform="translate(73.3125,7.5625)"/>
</svg>
