<?xml version="1.0" encoding="UTF-8"?>
<svg version="1.1" xmlns="http://www.w3.org/2000/svg" width="512" height="512">
<path d="M0 0 C1.17677204 -0.00262956 1.17677204 -0.00262956 2.37731725 -0.00531223 C5.03404355 -0.0100034 7.69071586 -0.00749878 10.34744453 -0.00507832 C12.2602277 -0.00694472 14.17301049 -0.00924474 16.08579266 -0.01194364 C21.36388608 -0.01808913 26.64196373 -0.01792483 31.92005992 -0.01674926 C37.60386512 -0.01654595 43.28766515 -0.02205738 48.97146797 -0.02680683 C60.11525946 -0.03512899 71.25904567 -0.03786238 82.40284 -0.03841921 C91.45691717 -0.03889363 100.51099259 -0.04094467 109.5650692 -0.04411983 C131.0333444 -0.05149582 152.50161786 -0.0576442 173.96989441 -0.05712128 C174.65690866 -0.0571057 175.34392292 -0.05709012 176.05175579 -0.05707407 C179.53406115 -0.05699096 183.01636651 -0.05689192 186.49867187 -0.05678936 C187.19030641 -0.05676942 187.88194095 -0.05674947 188.5945341 -0.05672892 C189.99318856 -0.05668848 191.39184302 -0.05664669 192.79049748 -0.05660353 C214.55518353 -0.05599066 236.319854 -0.06349834 258.0845356 -0.07717609 C282.52046365 -0.09252612 306.95637968 -0.10113029 331.39231312 -0.10021287 C344.33685585 -0.09988027 357.28138101 -0.10265486 370.22591972 -0.11339092 C381.24609483 -0.12247203 392.26624442 -0.12469094 403.28642164 -0.1178815 C408.91313932 -0.11460416 414.53980798 -0.11460311 420.16652107 -0.12323475 C425.31209006 -0.13104737 430.4575707 -0.12972244 435.60313739 -0.12095062 C437.46989321 -0.11940399 439.33665545 -0.12127503 441.2034037 -0.12681069 C443.73089548 -0.13381241 446.25807233 -0.12862343 448.78555298 -0.12025452 C449.51888951 -0.1252227 450.25222605 -0.13019088 451.0077849 -0.13530961 C454.64755945 -0.10963808 457.4851039 -0.00253968 460.51861763 2.12863445 C461.81030902 4.71201723 461.64639362 6.56335932 461.65004539 9.45761299 C461.65388654 10.59533195 461.65772768 11.73305091 461.66168523 12.9052462 C461.66081875 14.1658233 461.65995226 15.4264004 461.65905952 16.72517681 C461.66164181 18.06945063 461.66465458 19.41372368 461.66806293 20.75799567 C461.67615212 24.46460203 461.67792356 28.17118906 461.67866039 31.87780321 C461.68050759 35.87036974 461.68805316 39.86292616 461.69479561 43.85548687 C461.7083924 52.59082708 461.71440555 61.32616272 461.71880627 70.06151175 C461.72156604 75.51197803 461.72580287 80.96244253 461.73031044 86.4129076 C461.74250416 101.49287937 461.75280373 116.57284971 461.75618553 131.65282631 C461.7564051 132.61844265 461.75662466 133.58405899 461.75685088 134.57893643 C461.75706916 135.5469069 461.75728744 136.51487736 461.75751233 137.51218027 C461.7579558 139.47376851 461.75840237 141.43535676 461.75885201 143.396945 C461.75907343 144.36996748 461.75929486 145.34298996 461.759523 146.34549797 C461.76347335 162.12169 461.7809341 177.8978359 461.80421153 193.67401009 C461.82789724 209.85699733 461.84038609 226.03996139 461.84155345 242.22296625 C461.8424717 251.31490436 461.84826182 260.40678236 461.86637306 269.49870396 C461.88173649 277.23866097 461.88691679 284.9785393 461.87863496 292.71850865 C461.87471524 296.67024849 461.87572201 300.62182968 461.88969231 304.57355022 C461.90235248 308.18759664 461.90130395 311.80136392 461.88910159 315.41540951 C461.88619359 317.34971044 461.89813977 319.28401583 461.91052365 321.2182793 C461.90393381 322.35860601 461.89734396 323.49893271 461.89055443 324.67381477 C461.89115152 325.66190209 461.8917486 326.6499894 461.89236379 327.66801876 C461.45551414 330.54408604 460.7991394 331.38940005 458.51861763 333.12863445 C455.49101756 334.64243449 452.35811125 334.26651726 449.03723526 334.25726891 C447.86046322 334.25989846 447.86046322 334.25989846 446.65991801 334.26258114 C444.00319171 334.26727231 441.3465194 334.26476768 438.68979073 334.26234722 C436.77700756 334.26421363 434.86422477 334.26651365 432.9514426 334.26921254 C427.67334918 334.27535803 422.39527153 334.27519374 417.11717534 334.27401817 C411.43337014 334.27381485 405.74957011 334.27932629 400.06576729 334.28407574 C388.9219758 334.29239789 377.77818959 334.29513128 366.63439526 334.29568812 C357.58031809 334.29616254 348.52624267 334.29821357 339.47216606 334.30138874 C318.00389086 334.30876472 296.5356174 334.3149131 275.06734085 334.31439018 C274.3803266 334.3143746 273.69331234 334.31435903 272.98547947 334.31434297 C269.50317411 334.31425986 266.02086875 334.31416082 262.53856339 334.31405827 C261.84692885 334.31403832 261.15529431 334.31401838 260.44270116 334.31399783 C259.0440467 334.31395739 257.64539224 334.31391559 256.24673778 334.31387244 C234.48205173 334.31325957 212.71738126 334.32076725 190.95269966 334.334445 C166.51677161 334.34979503 142.08085558 334.3583992 117.64492214 334.35748178 C104.70037941 334.35714918 91.75585425 334.35992377 78.81131554 334.37065983 C67.79114043 334.37974093 56.77099084 334.38195985 45.75081362 334.3751504 C40.12409594 334.37187306 34.49742728 334.37187202 28.87071419 334.38050365 C23.7251452 334.38831627 18.57966456 334.38699135 13.43409787 334.37821952 C11.56734205 334.3766729 9.70057981 334.37854394 7.83383156 334.3840796 C5.30633978 334.39108132 2.77916293 334.38589234 0.25168228 334.37752342 C-0.48165425 334.3824916 -1.21499079 334.38745978 -1.97054964 334.39257851 C-5.61032419 334.36690699 -8.44786864 334.25980858 -11.48138237 332.12863445 C-12.77307376 329.54525168 -12.60915836 327.69390959 -12.61281013 324.79965591 C-12.61665128 323.66193696 -12.62049242 322.524218 -12.62444997 321.35202271 C-12.62358349 320.09144561 -12.622717 318.8308685 -12.62182426 317.53209209 C-12.62440655 316.18781827 -12.62741932 314.84354522 -12.63082767 313.49927324 C-12.63891686 309.79266687 -12.6406883 306.08607985 -12.64142513 302.3794657 C-12.64327233 298.38689916 -12.6508179 294.39434275 -12.65756035 290.40178204 C-12.67115714 281.66644182 -12.67717029 272.93110619 -12.68157101 264.19575715 C-12.68433078 258.74529087 -12.68856761 253.29482638 -12.69307518 247.84436131 C-12.7052689 232.76438953 -12.71556847 217.68441919 -12.71895027 202.6044426 C-12.71916984 201.63882626 -12.7193894 200.67320992 -12.71961562 199.67833247 C-12.7198339 198.71036201 -12.72005218 197.74239154 -12.72027707 196.74508864 C-12.72072054 194.78350039 -12.72116711 192.82191215 -12.72161674 190.86032391 C-12.72183817 189.88730142 -12.7220596 188.91427894 -12.72228774 187.91177093 C-12.72623809 172.13557891 -12.74369884 156.35943301 -12.76697627 140.58325882 C-12.79066198 124.40027158 -12.80315083 108.21730751 -12.80431819 92.03430265 C-12.80523644 82.94236454 -12.81102656 73.85048655 -12.8291378 64.75856495 C-12.84450123 57.01860793 -12.84968153 49.27872961 -12.8413997 41.53876025 C-12.83747998 37.58702042 -12.83848675 33.63543922 -12.85245705 29.68371868 C-12.86511722 26.06967227 -12.86406869 22.45590498 -12.85186633 18.84185939 C-12.84895833 16.90755847 -12.86090451 14.97325307 -12.87328839 13.0389896 C-12.86669855 11.8986629 -12.8601087 10.75833619 -12.85331917 9.58345413 C-12.85391626 8.59536682 -12.85451334 7.6072795 -12.85512853 6.58925015 C-12.41827888 3.71318286 -11.76190414 2.86786886 -9.48138237 1.12863445 C-6.4537823 -0.38516558 -3.32087599 -0.00924835 0 0 Z M1.51861763 15.12863445 C1.51861763 32.61863445 1.51861763 50.10863445 1.51861763 68.12863445 C10.43164525 68.33739776 10.43164525 68.33739776 19.34527779 68.51657391 C45.87730026 69.28548247 68.97952489 79.37552621 87.51861763 98.12863445 C88.71937935 99.31392742 88.71937935 99.31392742 89.94439888 100.5231657 C98.93991392 109.89155183 104.93673751 120.78010251 109.45611763 132.87863445 C109.73858345 133.63394451 110.02104927 134.38925457 110.31207466 135.16745281 C114.01046757 145.65379125 114.88366378 155.87041229 114.83111763 166.94113445 C114.82547798 168.18217937 114.81983833 169.4232243 114.81402779 170.70187664 C114.70035511 179.25771479 114.20637861 186.95336148 111.51861763 195.12863445 C111.32525826 195.74528973 111.13189888 196.361945 110.93268013 196.9972868 C105.79177235 213.13799185 97.53000354 226.2543257 85.51861763 238.12863445 C84.33332466 239.32939617 84.33332466 239.32939617 83.12408638 240.5544157 C73.75570025 249.54993074 62.86714958 255.54675433 50.76861763 260.06613445 C49.63565254 260.48983318 49.63565254 260.48983318 48.47979927 260.92209148 C37.58035217 264.76618235 26.81990945 265.477364 15.33111763 265.75363445 C10.77299263 265.87738445 6.21486763 266.00113445 1.51861763 266.12863445 C1.51861763 283.61863445 1.51861763 301.10863445 1.51861763 319.12863445 C72.79861763 319.12863445 144.07861763 319.12863445 217.51861763 319.12863445 C217.51861763 287.11863445 217.51861763 255.10863445 217.51861763 222.12863445 C209.59861763 219.65363445 209.59861763 219.65363445 201.51861763 217.12863445 C186.74255814 209.59852721 177.09343297 199.24539567 171.81549263 183.36300945 C170.29409255 177.97048574 170.01894103 172.83386178 170.08111763 167.25363445 C170.08941597 166.28764324 170.09771431 165.32165203 170.10626411 164.32638836 C170.43448063 150.44785249 175.74815774 137.93673931 185.33111763 127.75363445 C194.52028889 119.21956789 205.54464866 115.12212669 217.51861763 112.12863445 C217.51861763 80.11863445 217.51861763 48.10863445 217.51861763 15.12863445 C146.23861763 15.12863445 74.95861763 15.12863445 1.51861763 15.12863445 Z M231.51861763 15.12863445 C231.51861763 47.13863445 231.51861763 79.14863445 231.51861763 112.12863445 C236.79861763 113.77863445 242.07861763 115.42863445 247.51861763 117.12863445 C262.01126893 123.81755044 271.19340231 135.16165316 276.79205513 149.9372282 C281.44241112 163.96330192 279.42586892 180.26443819 272.97564888 193.23019695 C265.45504994 207.10114145 254.41661185 215.23675575 239.51861763 220.12863445 C235.55861763 221.11863445 235.55861763 221.11863445 231.51861763 222.12863445 C231.51861763 254.13863445 231.51861763 286.14863445 231.51861763 319.12863445 C302.79861763 319.12863445 374.07861763 319.12863445 447.51861763 319.12863445 C447.51861763 301.63863445 447.51861763 284.14863445 447.51861763 266.12863445 C443.08424263 266.04613445 438.64986763 265.96363445 434.08111763 265.87863445 C422.72173371 265.54421884 412.32111355 264.68013996 401.51861763 261.12863445 C400.88359322 260.92109539 400.2485688 260.71355633 399.59430122 260.4997282 C385.19603288 255.65558655 373.4023541 247.67778951 362.51861763 237.12863445 C361.91920357 236.60269695 361.31978951 236.07675945 360.70221138 235.53488445 C345.54886429 221.7527219 335.42981394 198.25912501 334.35748482 178.09933758 C333.98587227 149.87406826 333.98587227 149.87406826 337.51861763 139.12863445 C337.71197701 138.51197918 337.90533638 137.89532391 338.10455513 137.25998211 C343.24546291 121.11927706 351.50723172 108.00294321 363.51861763 96.12863445 C364.7039106 94.92787273 364.7039106 94.92787273 365.91314888 93.7028532 C384.35724231 75.99285304 408.79878889 68.89170401 433.89361763 68.44113445 C440.63799263 68.28644695 440.63799263 68.28644695 447.51861763 68.12863445 C447.51861763 50.63863445 447.51861763 33.14863445 447.51861763 15.12863445 C376.23861763 15.12863445 304.95861763 15.12863445 231.51861763 15.12863445 Z M1.51861763 82.12863445 C1.51861763 99.94863445 1.51861763 117.76863445 1.51861763 136.12863445 C14.14206721 136.21993482 14.14206721 136.21993482 26.76568794 136.24631023 C38.60003484 136.36187946 48.25775776 137.52940856 57.01861763 146.37863445 C63.29271988 154.89879106 64.6916112 163.70335488 63.51861763 174.12863445 C61.62272621 181.95717488 57.83319767 188.04477377 51.28131294 192.72775555 C41.43187614 198.41205219 31.87565705 198.01719947 20.76861763 198.00363445 C14.41611763 198.04488445 8.06361763 198.08613445 1.51861763 198.12863445 C1.51861763 215.94863445 1.51861763 233.76863445 1.51861763 252.12863445 C30.40993029 252.12863445 55.59003702 247.99665872 76.80377388 227.00363445 C95.80861818 206.87764106 101.46602201 184.11312248 100.70221138 157.2575407 C100.32707474 150.86425454 98.76854996 145.12599506 96.51861763 139.12863445 C95.97527779 137.57209148 95.97527779 137.57209148 95.42096138 135.9841032 C87.47544204 115.00254535 71.06139848 99.10550133 51.01080513 89.62863445 C34.61120413 82.58451053 19.34888336 82.12863445 1.51861763 82.12863445 Z M372.23346138 107.25363445 C353.22861708 127.37962784 347.57121325 150.14414643 348.33502388 176.9997282 C348.71016052 183.39301437 350.2686853 189.13127384 352.51861763 195.12863445 C352.88084419 196.16632977 353.24307076 197.20402508 353.61627388 198.2731657 C361.56179322 219.25472356 377.97583678 235.15176757 398.02643013 244.62863445 C414.42603113 251.67275837 429.6883519 252.12863445 447.51861763 252.12863445 C447.51861763 234.30863445 447.51861763 216.48863445 447.51861763 198.12863445 C434.89516805 198.03733408 434.89516805 198.03733408 422.27154732 198.01095867 C410.43720042 197.89538945 400.7794775 196.72786034 392.01861763 187.87863445 C385.74451538 179.35847784 384.34562406 170.55391403 385.51861763 160.12863445 C387.41450905 152.30009402 391.20403759 146.21249514 397.75592232 141.52951336 C407.60535912 135.84521671 417.16157821 136.24006943 428.26861763 136.25363445 C434.62111763 136.21238445 440.97361763 136.17113445 447.51861763 136.12863445 C447.51861763 118.30863445 447.51861763 100.48863445 447.51861763 82.12863445 C418.62730497 82.12863445 393.44719824 86.26061018 372.23346138 107.25363445 Z M231.51861763 127.12863445 C231.51861763 153.52863445 231.51861763 179.92863445 231.51861763 207.12863445 C243.10934129 203.65141736 252.9669974 198.94755769 259.24908638 188.1559782 C264.58759589 177.71988954 266.2612256 167.57923332 263.87018013 155.9841032 C260.197739 145.01386239 253.70476065 136.67001384 243.51861763 131.12863445 C237.71917832 128.35967301 237.71917832 128.35967301 231.51861763 127.12863445 Z M195.51861763 138.12863445 C186.90966332 147.79309274 183.56666723 158.46549299 184.13971138 171.26144695 C185.16208878 181.69602046 189.94529585 191.16400311 197.80768013 198.16769695 C203.01384595 202.05166193 210.75081131 207.12863445 217.51861763 207.12863445 C217.51861763 180.72863445 217.51861763 154.32863445 217.51861763 127.12863445 C209.80180685 127.12863445 201.01401235 133.23341936 195.51861763 138.12863445 Z M1.51861763 150.12863445 C1.51861763 161.34863445 1.51861763 172.56863445 1.51861763 184.12863445 C6.61299263 184.19050945 11.70736763 184.25238445 16.95611763 184.31613445 C19.33915108 184.35710247 19.33915108 184.35710247 21.77032661 184.39889812 C33.98201356 184.61212007 33.98201356 184.61212007 44.67486763 179.3747282 C45.34002388 178.4794743 45.34002388 178.4794743 46.01861763 177.56613445 C46.48268013 176.96672039 46.94674263 176.36730633 47.42486763 175.7497282 C50.30374721 171.48281739 50.07321568 167.13542243 49.51861763 162.12863445 C46.76602801 156.62345521 43.18082294 153.04492079 37.33087349 151.03146648 C33.34870065 150.08839411 29.92166759 149.90049751 25.83502388 149.93332195 C24.55313179 149.93831707 23.2712397 149.94331219 21.9505024 149.94845867 C19.54015694 149.97577068 19.54015694 149.97577068 17.08111763 150.00363445 C11.94549263 150.04488445 6.80986763 150.08613445 1.51861763 150.12863445 Z M404.36236763 154.8825407 C403.91893013 155.47937664 403.47549263 156.07621258 403.01861763 156.69113445 C402.55455513 157.29054852 402.09049263 157.88996258 401.61236763 158.5075407 C398.73348805 162.77445152 398.96401958 167.12184648 399.51861763 172.12863445 C402.27120725 177.6338137 405.85641232 181.21234812 411.70636177 183.22580242 C415.68853461 184.1688748 419.11556767 184.3567714 423.20221138 184.32394695 C424.48410347 184.31895184 425.76599556 184.31395672 427.08673286 184.30881023 C428.69362984 184.29060223 430.30052681 184.27239422 431.95611763 184.25363445 C437.09174263 184.21238445 442.22736763 184.17113445 447.51861763 184.12863445 C447.51861763 172.90863445 447.51861763 161.68863445 447.51861763 150.12863445 C442.42424263 150.06675945 437.32986763 150.00488445 432.08111763 149.94113445 C430.49242867 149.91382244 428.9037397 149.88651043 427.26690865 149.85837078 C415.0552217 149.64514883 415.0552217 149.64514883 404.36236763 154.8825407 Z " fill="#FFFFFF" transform="translate(31.481382369995117,88.87136554718018)"/>
</svg>
