<?xml version="1.0" encoding="UTF-8"?>
<svg version="1.1" xmlns="http://www.w3.org/2000/svg" width="512" height="512">
<path d="M0 0 C0.66257812 0.16628906 1.32515625 0.33257813 2.0078125 0.50390625 C30.00243526 7.79980214 55.51632734 25.8851742 70.375 50.890625 C72.28420231 54.21819733 74.09557724 57.59491957 75.8984375 60.98095703 C76.99168568 62.98476076 78.13895981 64.94463849 79.3125 66.90234375 C94.74234892 92.81125323 100.87672397 123.42266313 94.09765625 153.1875 C88.76008641 171.72653262 81.16757449 188.66809014 68 203 C67.55817383 203.4842041 67.11634766 203.9684082 66.66113281 204.46728516 C48.18998312 224.48733779 22.3237486 238.68052991 -5.26293945 240.17700195 C-20.59371369 240.45740889 -35.25112907 240.68652211 -50 236 C-51.21816406 235.64550781 -52.43632812 235.29101562 -53.69140625 234.92578125 C-62.89103614 231.88481913 -71.28297485 227.34591881 -79.75 222.6875 C-81.4369397 221.76360474 -81.4369397 221.76360474 -83.15795898 220.82104492 C-113.96708174 203.48427104 -134.55327093 178.21029334 -144.38378906 144.24365234 C-145.58988075 139.85221707 -146.49887339 135.52487847 -147 131 C-147.10828125 130.10539063 -147.2165625 129.21078125 -147.328125 128.2890625 C-150.69697075 96.6396432 -141.75300586 64.9817427 -122 40 C-102.38703091 16.34906669 -75.05777693 0.53047626 -44.2043457 -2.83666992 C-29.38302924 -3.9348492 -14.44101255 -3.66801719 0 0 Z M-48 10 C-49.97663914 13.36181306 -49.97663914 13.36181306 -51 17 C-50.67 17.99 -50.34 18.98 -50 20 C-49.21496094 19.79503906 -48.42992187 19.59007812 -47.62109375 19.37890625 C-46.57050781 19.10949219 -45.51992187 18.84007812 -44.4375 18.5625 C-43.40496094 18.29566406 -42.37242187 18.02882813 -41.30859375 17.75390625 C-33.19699667 15.90557303 -25.28826427 15.77165141 -17 15.75 C-15.05782593 15.74407837 -15.05782593 15.74407837 -13.07641602 15.73803711 C-4.94871866 15.78758067 2.50203853 16.34240032 10.34765625 18.44140625 C13.02920973 19.00615168 14.45416206 18.92187417 17 18 C-0.60477194 10.2102779 -29.72320243 0.33277013 -48 10 Z M-71.8125 16.25 C-72.86147461 16.70052734 -72.86147461 16.70052734 -73.93164062 17.16015625 C-78.2854569 19.07436921 -82.12074713 21.24737473 -86 24 C-85.39134979 28.13882142 -83.91144908 31.30009051 -82 35 C-79.77044347 33.72984669 -77.54134574 32.45889952 -75.3125 31.1875 C-74.68666016 30.83107422 -74.06082031 30.47464844 -73.41601562 30.10742188 C-72.18071295 29.40245857 -70.94862707 28.6918259 -69.7199707 27.9753418 C-68.21929819 27.12435717 -66.67471314 26.35176186 -65.125 25.59375 C-62.76315177 24.13340537 -62.76315177 24.13340537 -62.07421875 21.30078125 C-61.94660156 20.31464844 -61.81898438 19.32851563 -61.6875 18.3125 C-61.54699219 17.31863281 -61.40648437 16.32476562 -61.26171875 15.30078125 C-61.17535156 14.54152344 -61.08898437 13.78226563 -61 13 C-65.05251299 13 -68.17588335 14.63445861 -71.8125 16.25 Z M-105 38 C-109.59627268 42.64803251 -113.46874486 47.85382088 -117.3125 53.125 C-117.9619458 54.00393921 -117.9619458 54.00393921 -118.62451172 54.90063477 C-121.17907266 58.47269032 -122.83560662 61.76701192 -124 66 C-119.84419614 67.15321799 -116.28130157 67.70405927 -112 67 C-108.68685028 63.99861397 -106.52383184 60.47807687 -104.15478516 56.71044922 C-102.21918576 53.84347049 -99.91201433 51.3427462 -97.5625 48.8125 C-96.73878906 47.91144531 -95.91507813 47.01039062 -95.06640625 46.08203125 C-93 44 -93 44 -91 43 C-91.57634139 38.24518354 -93.55068521 35.02951788 -96 31 C-99.03549036 31 -102.89907134 36.03132404 -105 38 Z M-130 78 C-140.09502662 106.62826251 -138.26064046 134.29095255 -126 162 C-124.57321266 158.14767419 -125.43523493 155.2310617 -126.375 151.3125 C-132.16997418 125.59234062 -127.86179017 101.11184103 -118 77 C-122.18001995 76.91803882 -125.92212105 77.10554296 -130 78 Z " fill="#56567A" transform="translate(277,21)"/>
<path d="M0 0 C5.81318537 2.9117371 9.17158912 7.44128984 11.30816936 13.5012989 C12.612017 18.23148249 12.53017489 22.89546775 12.51069641 27.77218628 C12.51452196 28.79270525 12.51834751 29.81322422 12.52228898 30.86466801 C12.53258987 34.27685614 12.52863231 37.68887508 12.5246582 41.10107422 C12.52900628 43.55052852 12.53418975 45.99998146 12.54014587 48.44943237 C12.55214652 54.40788985 12.55468849 60.36628108 12.55234561 66.32474457 C12.55056051 71.16956671 12.55231621 76.0143752 12.55657005 80.85919571 C12.55716524 81.54948908 12.55776043 82.23978246 12.55837366 82.95099381 C12.55958544 84.3534615 12.56079958 85.75592918 12.56201603 87.15839685 C12.57288567 100.30283354 12.57073185 113.44724456 12.56463119 126.59168269 C12.55946291 138.60646264 12.57071612 150.62116149 12.58972941 162.6359254 C12.60911954 174.98384364 12.61736172 187.33172354 12.61360615 199.6796571 C12.61169584 206.60760042 12.61416502 213.53547473 12.62832069 220.46340561 C12.64149929 226.97888707 12.6389585 233.49423318 12.62590981 240.00972366 C12.62354362 242.39898483 12.62628019 244.78825741 12.63453293 247.17750549 C12.64499816 250.44314056 12.63690096 253.70823079 12.6242218 256.97384644 C12.63159609 257.9155931 12.63897037 258.85733976 12.64656812 259.8276242 C12.5733368 268.81522628 10.69364543 276.05635457 4.25 282.5 C-1.68161748 286.69553432 -7.63726678 287.22067341 -14.75 286.5 C-21.22792421 284.87274544 -24.89780143 281.84165404 -28.65625 276.40234375 C-31.10261145 272.14742222 -30.87941784 268.08260481 -30.84765625 263.33203125 C-30.84553383 262.13981209 -30.84553383 262.13981209 -30.84336853 260.92350769 C-30.83777378 258.38646675 -30.82522228 255.84951425 -30.8125 253.3125 C-30.80748432 251.59179815 -30.80292153 249.87109492 -30.79882812 248.15039062 C-30.78865722 243.93353231 -30.76908084 239.71686509 -30.75 235.5 C-39.99 235.83 -49.23 236.16 -58.75 236.5 C-60.73 240.46 -60.73 240.46 -62.75 244.5 C-67.1408784 249.10420043 -72.69205013 252.31281286 -79.12109375 252.609375 C-81.33566322 252.62319447 -83.53739928 252.58850403 -85.75 252.5 C-86.10578125 253.49 -86.10578125 253.49 -86.46875 254.5 C-88.11111959 258.3455483 -90.17418666 261.87496562 -92.25 265.5 C-118.69640308 312.64400782 -127.54833505 362.185373 -132.37109375 415.30078125 C-132.45915283 416.24703369 -132.54721191 417.19328613 -132.63793945 418.16821289 C-132.79022547 419.82673462 -132.9340206 421.48607008 -133.06713867 423.14624023 C-133.52890724 428.27890724 -133.52890724 428.27890724 -135.75 430.5 C-138.73894102 430.81797245 -140.84764806 431.03570781 -143.48046875 429.47265625 C-145.17569468 426.83853595 -144.68840701 424.86936788 -144.35351562 421.84936523 C-143.86523433 417.09644768 -143.44297554 412.64046736 -146.01269531 408.43212891 C-149.47503958 404.27794189 -153.51667536 400.84362867 -157.75 397.5 C-160.79332765 398.8584202 -162.87309151 400.38463024 -165.203125 402.7578125 C-165.821875 403.38300781 -166.440625 404.00820313 -167.078125 404.65234375 C-167.71234375 405.30332031 -168.3465625 405.95429688 -169 406.625 C-169.6496875 407.28371094 -170.299375 407.94242187 -170.96875 408.62109375 C-172.56711727 410.24296643 -174.16061897 411.8693281 -175.75 413.5 C-174.43851082 416.42468244 -173.58148779 417.64499888 -171.0625 419.8125 C-168.75 422.5 -168.75 422.5 -168.9375 426.3125 C-169.205625 427.364375 -169.47375 428.41625 -169.75 429.5 C-172.46589495 430.34871717 -173.97855129 430.82117723 -176.75 430.5 C-179.76260051 428.4985854 -182.25019073 426.10369745 -184.75 423.5 C-185.89626322 424.47866338 -187.04199788 425.45794587 -188.1875 426.4375 C-189.14462891 427.25541016 -189.14462891 427.25541016 -190.12109375 428.08984375 C-191.01991149 428.86795695 -191.90936528 429.65936528 -192.75 430.5 C-197.96848739 430.95378151 -197.96848739 430.95378151 -200.6875 429.375 C-201.75 427.5 -201.75 427.5 -201.8125 424.6875 C-200.36544753 420.34634258 -198.1434414 418.532437 -194.75 415.5 C-196.1084202 412.45667235 -197.63463024 410.37690849 -200.0078125 408.046875 C-200.63300781 407.428125 -201.25820313 406.809375 -201.90234375 406.171875 C-202.55332031 405.53765625 -203.20429688 404.9034375 -203.875 404.25 C-204.53371094 403.6003125 -205.19242187 402.950625 -205.87109375 402.28125 C-207.49296643 400.68288273 -209.1193281 399.08938103 -210.75 397.5 C-211.43074585 398.09095459 -211.43074585 398.09095459 -212.12524414 398.69384766 C-217.37341326 403.22556921 -217.37341326 403.22556921 -220.18359375 405.2734375 C-222.62270885 407.22282773 -224.17076916 408.78291309 -225.75 411.5 C-226.11113397 415.09363705 -226.17612638 418.36685586 -225.89428711 421.95263672 C-225.49842399 427.11806188 -225.49842399 427.11806188 -227.0390625 429.45703125 C-229.68524344 431.07011415 -231.73302959 430.88514516 -234.75 430.5 C-236.72013846 427.5447923 -237.02625453 426.7468963 -237.26489258 423.4128418 C-237.32890259 422.58782669 -237.3929126 421.76281158 -237.4588623 420.91279602 C-237.52013306 420.01731552 -237.58140381 419.12183502 -237.64453125 418.19921875 C-237.79350811 416.2673753 -237.94302553 414.33557348 -238.09301758 412.40380859 C-238.20705429 410.88191925 -238.20705429 410.88191925 -238.32339478 409.32928467 C-242.33654483 356.59746611 -253.54365269 306.13339701 -280.76611328 260.2097168 C-281.63320458 258.7029574 -282.39956282 257.13918404 -283.1484375 255.5703125 C-284.62383205 253.22363538 -284.62383205 253.22363538 -287.5703125 252.78515625 C-288.66085937 252.71167969 -289.75140625 252.63820313 -290.875 252.5625 C-298.10357456 251.70022856 -303.331288 249.45199298 -308.15234375 243.87890625 C-312.5751702 237.56732829 -312.37423455 230.92927037 -311.75 223.5 C-310.10298578 217.58016033 -306.8097531 213.97237958 -301.75 210.5 C-296.19862101 207.64078047 -291.84853258 207.0672306 -285.6546936 207.11231995 C-284.76076476 207.10693441 -283.86683591 207.10154887 -282.94581831 207.09600013 C-279.96194689 207.08173677 -276.97852012 207.08882035 -273.99462891 207.09594727 C-271.8505874 207.09024283 -269.70654894 207.08327829 -267.56251526 207.07514954 C-261.74635145 207.05721045 -255.93033846 207.05838807 -250.11415529 207.06409192 C-245.25582461 207.06718291 -240.39752293 207.06109225 -235.53919637 207.05505317 C-224.07591105 207.04100685 -212.61270025 207.04256994 -201.14941406 207.05395508 C-189.33021077 207.06543444 -177.51123445 207.05136378 -165.69206107 207.0245586 C-155.53813156 207.00239378 -145.38427326 206.99576607 -135.23032129 207.00163502 C-129.16866584 207.00500413 -123.10715585 207.00259243 -117.04552078 206.98538399 C-111.34417469 206.96990479 -105.64316446 206.97388156 -99.94183159 206.99268913 C-97.85250729 206.99637238 -95.76315805 206.99327429 -93.67385674 206.98280334 C-90.81527716 206.96957371 -87.95780624 206.98115867 -85.09927368 206.99879456 C-84.27814642 206.98918955 -83.45701915 206.97958454 -82.61100924 206.96968848 C-75.99829996 207.05327106 -69.81529776 208.66359054 -64.85878623 213.24999529 C-61.78489925 216.60461273 -60.49853785 219.12865536 -58.75 223.5 C-49.51 223.83 -40.27 224.16 -30.75 224.5 C-30.75888245 221.87434082 -30.76776489 219.24868164 -30.7769165 216.54345703 C-30.85863365 191.82284901 -30.91817315 167.10225878 -30.95724869 142.38154602 C-30.97787278 129.67179024 -31.00599064 116.96213357 -31.05175781 104.25244141 C-31.09163004 93.1745141 -31.11743392 82.09665857 -31.12635398 71.0186615 C-31.13156802 65.15307733 -31.1438201 59.28769852 -31.17292023 53.42218018 C-31.20009519 47.89989905 -31.20844067 42.37790766 -31.20243073 36.85556602 C-31.20353002 34.83031324 -31.21147134 32.80505064 -31.2268219 30.77985573 C-31.24678223 28.01035402 -31.24191708 25.24194004 -31.23101807 22.47241211 C-31.24266943 21.67472475 -31.2543208 20.87703739 -31.26632524 20.05517769 C-31.20688917 14.4510931 -29.84741218 10.19869662 -26.75 5.5 C-24.49609375 3.44140625 -24.49609375 3.44140625 -22.1875 2.0625 C-21.04087891 1.35287109 -21.04087891 1.35287109 -19.87109375 0.62890625 C-13.63931989 -2.68782053 -6.511629 -2.50532167 0 0 Z M-17.75 12.5 C-19.82637898 15.61456847 -20.00108575 16.28949884 -20.01006222 19.82198906 C-20.01712781 20.70966119 -20.0241934 21.59733331 -20.0314731 22.5119046 C-20.02905802 23.48805634 -20.02664293 24.46420809 -20.02415466 25.46994019 C-20.02939134 26.50619793 -20.03462802 27.54245568 -20.04002339 28.61011517 C-20.05508343 32.09932753 -20.05572986 35.58839403 -20.05639648 39.07763672 C-20.06401389 41.57240041 -20.07244066 44.06716173 -20.08161926 46.56192017 C-20.1036116 53.35112863 -20.11239091 60.14027804 -20.11744571 66.92951345 C-20.12070122 71.16773667 -20.12722278 75.40595078 -20.1344471 79.64416885 C-20.15401382 91.37604162 -20.17041781 103.10790593 -20.17332363 114.83979607 C-20.1735112 115.59070615 -20.17369877 116.34161624 -20.17389202 117.11528117 C-20.17425828 118.63758985 -20.17462198 120.15989853 -20.17498314 121.68220721 C-20.17516595 122.43789426 -20.17534876 123.19358131 -20.17553711 123.97216797 C-20.17571766 124.72877606 -20.17589821 125.48538416 -20.17608423 126.26491977 C-20.1796269 138.52843069 -20.2066547 150.79176613 -20.244035 163.05521618 C-20.2820959 175.64255285 -20.30148094 188.2298024 -20.30178314 200.81719792 C-20.30236819 207.88598004 -20.31089035 214.95455279 -20.33978081 222.0232811 C-20.36682167 228.67007365 -20.36821846 235.31652321 -20.35212517 241.96337509 C-20.3503033 244.40592349 -20.35706736 246.84849526 -20.37294388 249.29099274 C-20.39326638 252.61985707 -20.38293276 255.94724871 -20.36473083 259.27609253 C-20.3779308 260.24778283 -20.39113077 261.21947313 -20.40473074 262.22060859 C-20.34678113 266.84516411 -20.27143572 268.8353028 -17.33657932 272.57649422 C-13.53101603 275.40649558 -11.51434025 275.95810964 -6.75 275.5 C-3.2464546 273.7482273 -1.24443909 272.57934224 0.40558147 268.97740841 C1.51126733 264.42407239 1.52957055 260.15551044 1.51069641 255.48646545 C1.51452196 254.48172399 1.51834751 253.47698252 1.52228898 252.44179434 C1.53260279 249.07710971 1.52862986 245.71259624 1.5246582 242.34790039 C1.52900555 239.9347569 1.53418877 237.52161479 1.54014587 235.10847473 C1.5521527 229.23545037 1.55468763 223.36246843 1.55234561 217.48943646 C1.55056145 212.71512997 1.5523142 207.94083735 1.55657005 203.16653252 C1.55716524 202.48662765 1.55776043 201.80672279 1.55837366 201.10621474 C1.55958543 199.72492206 1.56079956 198.34362939 1.56201603 196.96233671 C1.57288825 184.01349106 1.57073052 171.06467145 1.56463119 158.11582433 C1.55946166 146.27422543 1.57071897 134.43270878 1.58972941 122.59112615 C1.60910877 110.42631112 1.61736368 98.26153499 1.61360615 86.09670442 C1.61169434 79.26941403 1.61417977 72.44219364 1.62832069 65.61491585 C1.64148255 59.19548598 1.63897313 52.77617963 1.62590981 46.35674858 C1.62354032 44.00051188 1.62629196 41.64426364 1.63453293 39.28804016 C1.64497025 36.07200737 1.6369235 32.85653086 1.6242218 29.64051819 C1.63159609 28.70782752 1.63897037 27.77513684 1.64656812 26.81418282 C1.60060975 21.28408144 0.90229881 17.38744384 -1.75 12.5 C-4.50088844 10.19520158 -6.19642599 9.56919675 -9.75 9.125 C-13.17422442 9.55302805 -15.00223913 10.43917934 -17.75 12.5 Z M-300.125 224.3125 C-301.33825516 228.55889305 -301.29873781 232.1586409 -299.625 236.25 C-296.96366634 239.44360039 -293.9872656 241.18343255 -289.80652714 241.77499652 C-287.52675545 241.88605944 -285.26497133 241.89987355 -282.98254395 241.88095093 C-282.11185414 241.8856309 -281.24116433 241.89031087 -280.34408998 241.89513266 C-277.4330134 241.9070775 -274.52240802 241.89762737 -271.61132812 241.88818359 C-269.52167995 241.89224952 -267.43203392 241.89759151 -265.34239197 241.90411377 C-259.67098406 241.91779064 -253.99973986 241.91248711 -248.32832909 241.90297651 C-242.39340142 241.89538189 -236.45848778 241.90242498 -230.52355957 241.90713501 C-220.55685916 241.91259312 -210.59022544 241.90539944 -200.62353516 241.89111328 C-189.1002717 241.8747867 -177.57716747 241.88007517 -166.05390787 241.8965925 C-156.16076752 241.91020573 -146.2676751 241.91212781 -136.37452841 241.90427649 C-130.46556583 241.8995991 -124.55667811 241.89897701 -118.64772034 241.90888596 C-113.09253547 241.91755091 -107.53755595 241.91154214 -101.98239326 241.89420319 C-99.94341434 241.89023585 -97.90441814 241.89137659 -95.86544609 241.89799118 C-93.08254931 241.90618688 -90.30031087 241.89590882 -87.51745605 241.88095093 C-86.71025383 241.88764309 -85.90305161 241.89433526 -85.07138872 241.90123022 C-79.40720402 241.84216365 -75.27621771 240.68938868 -70.875 236.875 C-69.10101513 233.12992084 -69.09009571 229.56094945 -69.75 225.5 C-71.88620683 221.91422425 -73.86256776 219.93980564 -77.75 218.5 C-80.64980673 218.30537496 -83.45320881 218.221633 -86.35287476 218.23257446 C-87.23002282 218.22804335 -88.10717088 218.22351224 -89.01089919 218.21884382 C-91.95572433 218.20616411 -94.90036538 218.20782249 -97.84521484 218.20947266 C-99.95427184 218.20348965 -102.06332664 218.19668464 -104.17237854 218.18911743 C-109.90584444 218.17142743 -115.63925067 218.1667608 -121.37274122 218.16548586 C-126.15663969 218.16358819 -130.94052422 218.15623221 -135.72441733 218.14914167 C-147.00964476 218.13284885 -158.29484028 218.12797355 -169.58007812 218.12939453 C-181.22715496 218.13059634 -192.8740466 218.10948863 -204.52107656 218.0779072 C-214.5160816 218.0517696 -224.51102605 218.04102617 -234.50606501 218.04230535 C-240.47769529 218.04281571 -246.44916101 218.03709181 -252.42075729 218.01594925 C-258.03668089 217.99660924 -263.65228224 217.9964135 -269.26821709 218.01098251 C-271.32977836 218.01307694 -273.39135958 218.00833215 -275.45288658 217.9962616 C-278.26669093 217.98085299 -281.07937811 217.99008831 -283.89315796 218.00552368 C-284.70950631 217.99523656 -285.52585467 217.98494943 -286.36694086 217.97435057 C-292.1879021 218.04494412 -296.43321817 219.44606032 -300.125 224.3125 Z M-271.75 252.5 C-270.50991781 255.08852107 -269.25852786 257.67046417 -268 260.25 C-267.65195312 260.97960937 -267.30390625 261.70921875 -266.9453125 262.4609375 C-266.59726562 263.16992188 -266.24921875 263.87890625 -265.890625 264.609375 C-265.57641602 265.25874023 -265.26220703 265.90810547 -264.93847656 266.57714844 C-263.52071092 269.03558287 -263.52071092 269.03558287 -259.75 272.5 C-255.13 267.88 -250.51 263.26 -245.75 258.5 C-247.43377223 254.60540926 -247.43377223 254.60540926 -249.75 252.5 C-252.07817205 252.22234584 -252.07817205 252.22234584 -254.7578125 252.3046875 C-255.74394531 252.31113281 -256.73007812 252.31757813 -257.74609375 252.32421875 C-258.77863281 252.34097656 -259.81117188 252.35773438 -260.875 252.375 C-261.91527344 252.38402344 -262.95554687 252.39304687 -264.02734375 252.40234375 C-266.60179092 252.42596253 -269.17578212 252.45889851 -271.75 252.5 Z M-228.75 256.5 C-227.35652624 259.65204981 -225.72514921 261.76171773 -223.2734375 264.171875 C-222.603125 264.83574219 -221.9328125 265.49960937 -221.2421875 266.18359375 C-220.19417969 267.20646484 -220.19417969 267.20646484 -219.125 268.25 C-218.41859375 268.94738281 -217.7121875 269.64476562 -216.984375 270.36328125 C-215.24401297 272.08012488 -213.49915019 273.79211832 -211.75 275.5 C-207.23427696 271.72369848 -202.93724026 267.82390572 -198.8125 263.625 C-198.31943359 263.12742187 -197.82636719 262.62984375 -197.31835938 262.1171875 C-196.12654008 260.91379715 -194.93791322 259.70724635 -193.75 258.5 C-194.90173355 256.03199953 -195.79783565 254.45216435 -197.75 252.5 C-202.1895435 252.01182251 -206.66169983 252.12959187 -211.125 252.125 C-212.37023437 252.10050781 -213.61546875 252.07601562 -214.8984375 252.05078125 C-216.0946875 252.04691406 -217.2909375 252.04304687 -218.5234375 252.0390625 C-219.62091309 252.03084473 -220.71838867 252.02262695 -221.84912109 252.01416016 C-225.36708965 252.60335031 -226.52990719 253.78326321 -228.75 256.5 Z M-176.75 256.5 C-175.35652624 259.65204981 -173.72514921 261.76171773 -171.2734375 264.171875 C-170.603125 264.83574219 -169.9328125 265.49960937 -169.2421875 266.18359375 C-168.19417969 267.20646484 -168.19417969 267.20646484 -167.125 268.25 C-166.41859375 268.94738281 -165.7121875 269.64476562 -164.984375 270.36328125 C-163.24401297 272.08012488 -161.49915019 273.79211832 -159.75 275.5 C-155.23427696 271.72369848 -150.93724026 267.82390572 -146.8125 263.625 C-146.31943359 263.12742187 -145.82636719 262.62984375 -145.31835938 262.1171875 C-144.12654008 260.91379715 -142.93791322 259.70724635 -141.75 258.5 C-142.90173355 256.03199953 -143.79783565 254.45216435 -145.75 252.5 C-150.1895435 252.01182251 -154.66169983 252.12959187 -159.125 252.125 C-160.37023437 252.10050781 -161.61546875 252.07601562 -162.8984375 252.05078125 C-164.0946875 252.04691406 -165.2909375 252.04304687 -166.5234375 252.0390625 C-167.62091309 252.03084473 -168.71838867 252.02262695 -169.84912109 252.01416016 C-173.36708965 252.60335031 -174.52990719 253.78326321 -176.75 256.5 Z M-122.92578125 255.5234375 C-123.52777344 256.50570313 -124.12976563 257.48796875 -124.75 258.5 C-122.46643754 260.84138543 -120.17186626 263.17166982 -117.875 265.5 C-117.22402344 266.16773438 -116.57304687 266.83546875 -115.90234375 267.5234375 C-115.27714844 268.15507812 -114.65195312 268.78671875 -114.0078125 269.4375 C-113.4317627 270.02402344 -112.85571289 270.61054688 -112.26220703 271.21484375 C-110.82675859 272.71586138 -110.82675859 272.71586138 -108.75 272.5 C-107.08002304 269.35591306 -105.41457635 266.20944906 -103.75 263.0625 C-103.27304687 262.16466797 -102.79609375 261.26683594 -102.3046875 260.34179688 C-101.85351562 259.48779297 -101.40234375 258.63378906 -100.9375 257.75390625 C-100.51855469 256.96314697 -100.09960938 256.1723877 -99.66796875 255.35766602 C-98.6761643 253.69593055 -98.6761643 253.69593055 -98.75 252.5 C-102.14517814 252.3251064 -105.53919487 252.21896235 -108.9375 252.125 C-110.37706055 252.04958984 -110.37706055 252.04958984 -111.84570312 251.97265625 C-118.17195138 251.77738508 -118.17195138 251.77738508 -122.92578125 255.5234375 Z M-239.42407227 267.06054688 C-240.13104248 267.77275391 -240.8380127 268.48496094 -241.56640625 269.21875 C-242.71206055 270.36923828 -242.71206055 270.36923828 -243.88085938 271.54296875 C-244.68330078 272.35378906 -245.48574219 273.16460937 -246.3125 274 C-247.11880859 274.81082031 -247.92511719 275.62164062 -248.75585938 276.45703125 C-250.75614434 278.46915222 -252.75406778 280.48356271 -254.75 282.5 C-253.35652624 285.65204981 -251.72514921 287.76171773 -249.2734375 290.171875 C-248.26796875 291.16767578 -248.26796875 291.16767578 -247.2421875 292.18359375 C-246.54351562 292.86550781 -245.84484375 293.54742187 -245.125 294.25 C-244.41859375 294.94738281 -243.7121875 295.64476562 -242.984375 296.36328125 C-241.24401297 298.08012488 -239.49915019 299.79211832 -237.75 301.5 C-233.23427696 297.72369848 -228.93724026 293.82390572 -224.8125 289.625 C-224.31943359 289.12742187 -223.82636719 288.62984375 -223.31835938 288.1171875 C-222.12654008 286.91379715 -220.93791322 285.70724635 -219.75 284.5 C-221.14017412 281.36421688 -222.76333695 279.23988136 -225.19140625 276.828125 C-225.85720703 276.16425781 -226.52300781 275.50039063 -227.20898438 274.81640625 C-228.25022461 273.79353516 -228.25022461 273.79353516 -229.3125 272.75 C-230.01052734 272.05261719 -230.70855469 271.35523438 -231.42773438 270.63671875 C-235.07287661 265.89670416 -235.07287661 265.89670416 -239.42407227 267.06054688 Z M-187.42407227 267.06054688 C-188.13104248 267.77275391 -188.8380127 268.48496094 -189.56640625 269.21875 C-190.71206055 270.36923828 -190.71206055 270.36923828 -191.88085938 271.54296875 C-192.68330078 272.35378906 -193.48574219 273.16460937 -194.3125 274 C-195.11880859 274.81082031 -195.92511719 275.62164062 -196.75585938 276.45703125 C-198.75614434 278.46915222 -200.75406778 280.48356271 -202.75 282.5 C-201.35652624 285.65204981 -199.72514921 287.76171773 -197.2734375 290.171875 C-196.26796875 291.16767578 -196.26796875 291.16767578 -195.2421875 292.18359375 C-194.54351562 292.86550781 -193.84484375 293.54742187 -193.125 294.25 C-192.41859375 294.94738281 -191.7121875 295.64476562 -190.984375 296.36328125 C-189.24401297 298.08012488 -187.49915019 299.79211832 -185.75 301.5 C-181.23427696 297.72369848 -176.93724026 293.82390572 -172.8125 289.625 C-172.31943359 289.12742187 -171.82636719 288.62984375 -171.31835938 288.1171875 C-170.12654008 286.91379715 -168.93791322 285.70724635 -167.75 284.5 C-169.14017412 281.36421688 -170.76333695 279.23988136 -173.19140625 276.828125 C-173.85720703 276.16425781 -174.52300781 275.50039063 -175.20898438 274.81640625 C-176.25022461 273.79353516 -176.25022461 273.79353516 -177.3125 272.75 C-178.01052734 272.05261719 -178.70855469 271.35523438 -179.42773438 270.63671875 C-183.07287661 265.89670416 -183.07287661 265.89670416 -187.42407227 267.06054688 Z M-135.53759766 268.06054688 C-136.23933105 268.77275391 -136.94106445 269.48496094 -137.6640625 270.21875 C-138.42460937 270.98574219 -139.18515625 271.75273437 -139.96875 272.54296875 C-140.7628125 273.35378906 -141.556875 274.16460937 -142.375 275 C-143.17679688 275.81082031 -143.97859375 276.62164062 -144.8046875 277.45703125 C-146.79098424 279.46697438 -148.77248035 281.48142676 -150.75 283.5 C-146.97369848 288.01572304 -143.07390572 292.31275974 -138.875 296.4375 C-138.37742187 296.93056641 -137.87984375 297.42363281 -137.3671875 297.93164062 C-136.16379715 299.12345992 -134.95724635 300.31208678 -133.75 301.5 C-130.59795019 300.10652624 -128.48828227 298.47514921 -126.078125 296.0234375 C-125.41425781 295.353125 -124.75039063 294.6828125 -124.06640625 293.9921875 C-123.38449219 293.29351562 -122.70257813 292.59484375 -122 291.875 C-121.30261719 291.16859375 -120.60523438 290.4621875 -119.88671875 289.734375 C-118.16987512 287.99401297 -116.45788168 286.24915019 -114.75 284.5 C-118.51061109 280.02083767 -122.36724147 275.70098257 -126.5 271.5625 C-126.98082031 271.06943359 -127.46164062 270.57636719 -127.95703125 270.06835938 C-129.1819286 268.83834407 -130.46202848 267.66380433 -131.75 266.5 C-133.89437944 266.28078511 -133.89437944 266.28078511 -135.53759766 268.06054688 Z M-213.42407227 293.06054688 C-214.13104248 293.77275391 -214.8380127 294.48496094 -215.56640625 295.21875 C-216.71206055 296.36923828 -216.71206055 296.36923828 -217.88085938 297.54296875 C-218.68330078 298.35378906 -219.48574219 299.16460937 -220.3125 300 C-221.11880859 300.81082031 -221.92511719 301.62164062 -222.75585938 302.45703125 C-224.75614434 304.46915222 -226.75406778 306.48356271 -228.75 308.5 C-227.35652624 311.65204981 -225.72514921 313.76171773 -223.2734375 316.171875 C-222.26796875 317.16767578 -222.26796875 317.16767578 -221.2421875 318.18359375 C-220.54351562 318.86550781 -219.84484375 319.54742187 -219.125 320.25 C-218.41859375 320.94738281 -217.7121875 321.64476562 -216.984375 322.36328125 C-215.24401297 324.08012488 -213.49915019 325.79211832 -211.75 327.5 C-207.23427696 323.72369848 -202.93724026 319.82390572 -198.8125 315.625 C-198.31943359 315.12742187 -197.82636719 314.62984375 -197.31835938 314.1171875 C-196.12654008 312.91379715 -194.93791322 311.70724635 -193.75 310.5 C-195.14017412 307.36421688 -196.76333695 305.23988136 -199.19140625 302.828125 C-199.85720703 302.16425781 -200.52300781 301.50039063 -201.20898438 300.81640625 C-202.25022461 299.79353516 -202.25022461 299.79353516 -203.3125 298.75 C-204.01052734 298.05261719 -204.70855469 297.35523438 -205.42773438 296.63671875 C-209.07287661 291.89670416 -209.07287661 291.89670416 -213.42407227 293.06054688 Z M-161.53759766 294.06054688 C-162.23933105 294.77275391 -162.94106445 295.48496094 -163.6640625 296.21875 C-164.42460937 296.98574219 -165.18515625 297.75273437 -165.96875 298.54296875 C-166.7628125 299.35378906 -167.556875 300.16460937 -168.375 301 C-169.17679688 301.81082031 -169.97859375 302.62164062 -170.8046875 303.45703125 C-172.79098424 305.46697438 -174.77248035 307.48142676 -176.75 309.5 C-172.97369848 314.01572304 -169.07390572 318.31275974 -164.875 322.4375 C-164.37742187 322.93056641 -163.87984375 323.42363281 -163.3671875 323.93164062 C-162.16379715 325.12345992 -160.95724635 326.31208678 -159.75 327.5 C-156.59795019 326.10652624 -154.48828227 324.47514921 -152.078125 322.0234375 C-151.41425781 321.353125 -150.75039063 320.6828125 -150.06640625 319.9921875 C-149.38449219 319.29351562 -148.70257813 318.59484375 -148 317.875 C-147.30261719 317.16859375 -146.60523438 316.4621875 -145.88671875 315.734375 C-144.16987512 313.99401297 -142.45788168 312.24915019 -140.75 310.5 C-144.51061109 306.02083767 -148.36724147 301.70098257 -152.5 297.5625 C-152.98082031 297.06943359 -153.46164062 296.57636719 -153.95703125 296.06835938 C-155.1819286 294.83834407 -156.46202848 293.66380433 -157.75 292.5 C-159.89437944 292.28078511 -159.89437944 292.28078511 -161.53759766 294.06054688 Z M-239.98046875 319.27734375 C-242.424242 323.72792418 -241.33840939 326.17042008 -240.01757812 330.91992188 C-239.70240234 331.95697266 -239.38722656 332.99402344 -239.0625 334.0625 C-238.76666016 335.10341797 -238.47082031 336.14433594 -238.16601562 337.21679688 C-237.61457887 339.15242702 -237.05290348 341.08519021 -236.4777832 343.01391602 C-235.84760078 345.16659889 -235.27554973 347.31981216 -234.75 349.5 C-230.67623969 347.88989473 -227.98492931 344.96177729 -225 341.875 C-224.49339844 341.359375 -223.98679687 340.84375 -223.46484375 340.3125 C-222.22196098 339.04616661 -220.98534724 337.7736856 -219.75 336.5 C-221.14017412 333.36421688 -222.76333695 331.23988136 -225.19140625 328.828125 C-225.85720703 328.16425781 -226.52300781 327.50039063 -227.20898438 326.81640625 C-228.25022461 325.79353516 -228.25022461 325.79353516 -229.3125 324.75 C-230.01052734 324.05261719 -230.70855469 323.35523438 -231.42773438 322.63671875 C-235.28137483 317.7142582 -235.28137483 317.7142582 -239.98046875 319.27734375 Z M-187.53759766 320.06054688 C-188.23933105 320.77275391 -188.94106445 321.48496094 -189.6640625 322.21875 C-190.42460937 322.98574219 -191.18515625 323.75273437 -191.96875 324.54296875 C-192.7628125 325.35378906 -193.556875 326.16460937 -194.375 327 C-195.17679687 327.81082031 -195.97859375 328.62164062 -196.8046875 329.45703125 C-198.79098424 331.46697438 -200.77248035 333.48142676 -202.75 335.5 C-198.97369848 340.01572304 -195.07390572 344.31275974 -190.875 348.4375 C-190.37742187 348.93056641 -189.87984375 349.42363281 -189.3671875 349.93164062 C-188.16379715 351.12345992 -186.95724635 352.31208678 -185.75 353.5 C-182.59795019 352.10652624 -180.48828227 350.47514921 -178.078125 348.0234375 C-177.41425781 347.353125 -176.75039063 346.6828125 -176.06640625 345.9921875 C-175.38449219 345.29351562 -174.70257813 344.59484375 -174 343.875 C-173.30261719 343.16859375 -172.60523438 342.4621875 -171.88671875 341.734375 C-170.16987512 339.99401297 -168.45788168 338.24915019 -166.75 336.5 C-170.51061109 332.02083767 -174.36724147 327.70098257 -178.5 323.5625 C-178.98082031 323.06943359 -179.46164062 322.57636719 -179.95703125 322.06835938 C-181.1819286 320.83834407 -182.46202848 319.66380433 -183.75 318.5 C-185.89437944 318.28078511 -185.89437944 318.28078511 -187.53759766 320.06054688 Z M-133.75 318.5 C-139.36 324.11 -144.97 329.72 -150.75 335.5 C-145.70586645 341.39421783 -145.70586645 341.39421783 -140.375 346.9375 C-139.34246094 347.95650391 -139.34246094 347.95650391 -138.2890625 348.99609375 C-137.52722656 349.74052734 -137.52722656 349.74052734 -136.75 350.5 C-134.10938502 345.60785308 -132.92331706 340.34402841 -131.5 335 C-131.20609375 333.95457031 -130.9121875 332.90914063 -130.609375 331.83203125 C-130.34125 330.82527344 -130.073125 329.81851562 -129.796875 328.78125 C-129.54776367 327.86408203 -129.29865234 326.94691406 -129.04199219 326.00195312 C-128.70030195 323.07415918 -129.03304116 321.8740335 -130.75 319.5 C-131.74 319.17 -132.73 318.84 -133.75 318.5 Z M-213.53759766 346.06054688 C-214.23933105 346.77275391 -214.94106445 347.48496094 -215.6640625 348.21875 C-216.42460937 348.98574219 -217.18515625 349.75273437 -217.96875 350.54296875 C-218.7628125 351.35378906 -219.556875 352.16460937 -220.375 353 C-221.17679687 353.81082031 -221.97859375 354.62164062 -222.8046875 355.45703125 C-224.79098424 357.46697438 -226.77248035 359.48142676 -228.75 361.5 C-227.35652624 364.65204981 -225.72514921 366.76171773 -223.2734375 369.171875 C-222.26796875 370.16767578 -222.26796875 370.16767578 -221.2421875 371.18359375 C-220.54351562 371.86550781 -219.84484375 372.54742187 -219.125 373.25 C-218.41859375 373.94738281 -217.7121875 374.64476562 -216.984375 375.36328125 C-215.24401297 377.08012488 -213.49915019 378.79211832 -211.75 380.5 C-207.04658874 376.57711742 -202.60726049 372.48981304 -198.3125 368.125 C-197.77173828 367.57972656 -197.23097656 367.03445313 -196.67382812 366.47265625 C-195.36353277 365.15076536 -194.05641716 363.82572382 -192.75 362.5 C-196.46754802 357.97865782 -200.39047364 353.72584239 -204.5 349.5625 C-204.98380127 349.06580811 -205.46760254 348.56911621 -205.96606445 348.05737305 C-207.18848364 346.83152671 -208.46551743 345.66065173 -209.75 344.5 C-211.89437944 344.28078511 -211.89437944 344.28078511 -213.53759766 346.06054688 Z M-161.53759766 346.06054688 C-162.23933105 346.77275391 -162.94106445 347.48496094 -163.6640625 348.21875 C-164.42460937 348.98574219 -165.18515625 349.75273437 -165.96875 350.54296875 C-166.7628125 351.35378906 -167.556875 352.16460937 -168.375 353 C-169.17679688 353.81082031 -169.97859375 354.62164062 -170.8046875 355.45703125 C-172.79098424 357.46697438 -174.77248035 359.48142676 -176.75 361.5 C-172.97369848 366.01572304 -169.07390572 370.31275974 -164.875 374.4375 C-164.37742187 374.93056641 -163.87984375 375.42363281 -163.3671875 375.93164062 C-162.16379715 377.12345992 -160.95724635 378.31208678 -159.75 379.5 C-156.59795019 378.10652624 -154.48828227 376.47514921 -152.078125 374.0234375 C-151.41425781 373.353125 -150.75039063 372.6828125 -150.06640625 371.9921875 C-149.38449219 371.29351562 -148.70257813 370.59484375 -148 369.875 C-147.30261719 369.16859375 -146.60523438 368.4621875 -145.88671875 367.734375 C-144.16987512 365.99401297 -142.45788168 364.24915019 -140.75 362.5 C-144.51061109 358.02083767 -148.36724147 353.70098257 -152.5 349.5625 C-152.98082031 349.06943359 -153.46164062 348.57636719 -153.95703125 348.06835938 C-155.1819286 346.83834407 -156.46202848 345.66380433 -157.75 344.5 C-159.89437944 344.28078511 -159.89437944 344.28078511 -161.53759766 346.06054688 Z M-187.53759766 372.06054688 C-188.23933105 372.77275391 -188.94106445 373.48496094 -189.6640625 374.21875 C-190.42460937 374.98574219 -191.18515625 375.75273437 -191.96875 376.54296875 C-192.7628125 377.35378906 -193.556875 378.16460937 -194.375 379 C-195.17679687 379.81082031 -195.97859375 380.62164062 -196.8046875 381.45703125 C-198.79098424 383.46697438 -200.77248035 385.48142676 -202.75 387.5 C-201.35652624 390.65204981 -199.72514921 392.76171773 -197.2734375 395.171875 C-196.26796875 396.16767578 -196.26796875 396.16767578 -195.2421875 397.18359375 C-194.54351562 397.86550781 -193.84484375 398.54742187 -193.125 399.25 C-192.41859375 399.94738281 -191.7121875 400.64476562 -190.984375 401.36328125 C-189.24401297 403.08012488 -187.49915019 404.79211832 -185.75 406.5 C-181.04658874 402.57711742 -176.60726049 398.48981304 -172.3125 394.125 C-171.77173828 393.57972656 -171.23097656 393.03445313 -170.67382812 392.47265625 C-169.36353277 391.15076536 -168.05641716 389.82572382 -166.75 388.5 C-170.46754802 383.97865782 -174.39047364 379.72584239 -178.5 375.5625 C-178.98380127 375.06580811 -179.46760254 374.56911621 -179.96606445 374.05737305 C-181.18848364 372.83152671 -182.46551743 371.66065173 -183.75 370.5 C-185.89437944 370.28078511 -185.89437944 370.28078511 -187.53759766 372.06054688 Z M-143.81640625 380.46875 C-144.64011719 381.3040625 -145.46382812 382.139375 -146.3125 383 C-147.13878906 383.8353125 -147.96507812 384.670625 -148.81640625 385.53125 C-149.77353516 386.50578125 -149.77353516 386.50578125 -150.75 387.5 C-149.79578192 388.64926266 -148.83647955 389.79430541 -147.875 390.9375 C-147.34132813 391.57558594 -146.80765625 392.21367187 -146.2578125 392.87109375 C-144.8277243 394.60805004 -144.8277243 394.60805004 -142.75 395.5 C-142.09 389.89 -141.43 384.28 -140.75 378.5 C-142.10501902 378.38503469 -142.10501902 378.38503469 -143.81640625 380.46875 Z M-228.75 379.5 C-228.42 385.11 -228.09 390.72 -227.75 396.5 C-226.595 395.5925 -225.44 394.685 -224.25 393.75 C-223.6003125 393.23953125 -222.950625 392.7290625 -222.28125 392.203125 C-220.30427485 390.38595704 -220.30427485 390.38595704 -220.75 386.5 C-222.22357939 384.50569802 -222.22357939 384.50569802 -224.1875 382.75 C-224.82558594 382.13640625 -225.46367187 381.5228125 -226.12109375 380.890625 C-227.51979563 379.39178531 -227.51979563 379.39178531 -228.75 379.5 Z " fill="#535479" transform="translate(485.75,63.5)"/>
<path d="M0 0 C2.2113291 1.5697154 3.92094709 2.98657672 5.8125 4.875 C6.33166992 5.37531738 6.85083984 5.87563477 7.38574219 6.39111328 C8.94346063 7.90904999 10.47452321 9.44973105 12 11 C12.82371094 11.825 13.64742188 12.65 14.49609375 13.5 C35.25507891 35.37428593 42.68812799 64.56341389 42 94 C38.6487138 92.7188108 35.5299555 91.27224332 32.39453125 89.53125 C15.83956138 80.50809988 -1.16946981 73.84449654 -18.91015625 67.54296875 C-37.51520084 60.88950041 -56.487475 53.90668904 -71 40 C-72.12728516 38.94619141 -72.12728516 38.94619141 -73.27734375 37.87109375 C-75 36 -75 36 -75 34 C-73.62084961 32.86181641 -73.62084961 32.86181641 -71.65234375 31.6015625 C-70.9137915 31.1281543 -70.17523926 30.65474609 -69.41430664 30.16699219 C-68.18828735 29.40370605 -68.18828735 29.40370605 -66.9375 28.625 C-66.08986084 28.09551758 -65.24222168 27.56603516 -64.36889648 27.02050781 C-16.48157074 -2.42052441 -16.48157074 -2.42052441 0 0 Z " fill="#FAA58A" transform="translate(313,50)"/>
<path d="M0 0 C1.3921875 1.2065625 1.3921875 1.2065625 2.8125 2.4375 C3.45960938 2.98664063 4.10671875 3.53578125 4.7734375 4.1015625 C6.31287564 5.41413607 7.83813208 6.74345936 9.3515625 8.0859375 C26.65049578 22.98078942 48.10967736 30.04996247 69.26513672 37.75244141 C88.33540554 44.70415161 106.5276148 52.63672282 124 63 C121.51097207 84.9671186 110.13710498 107.07301555 93 121 C82.54595863 111.45500571 72.45278212 101.56345876 62.4375 91.5625 C61.82604126 90.95353882 61.21458252 90.34457764 60.58459473 89.71716309 C54.16603259 83.32010367 47.87270422 76.9083963 42 70 C40.38032183 68.22429779 38.75588282 66.45291693 37.125 64.6875 C33.03242565 60.19986568 29.14729166 55.59069772 25.3359375 50.86328125 C23.28213798 48.34583134 21.18416619 45.87418995 19.06347656 43.41308594 C12.31556866 35.56367426 6.11766257 27.34600762 0 19 C-0.43070801 18.41250977 -0.86141602 17.82501953 -1.30517578 17.21972656 C-3.54826591 14.15473401 -5.78006126 11.08179731 -8 8 C-5.53721355 4.8387342 -3.32876781 2.25880673 0 0 Z " fill="#FAA58A" transform="translate(229,91)"/>
<path d="M0 0 C2.74861974 2.74861974 4.86027334 5.00785707 7.06640625 8.08984375 C7.91017822 9.25688843 7.91017822 9.25688843 8.77099609 10.44750977 C9.36219238 11.26920654 9.95338867 12.09090332 10.5625 12.9375 C15.64075517 19.91827725 20.89434845 26.62782562 26.546875 33.1484375 C28.81051904 35.77974348 30.97973389 38.45946475 33.125 41.1875 C36.54015889 45.49660642 40.15587181 49.58201499 43.859375 53.64453125 C45.70684121 55.67741834 47.51707324 57.73381416 49.3125 59.8125 C59.03905967 70.9377744 69.3232957 81.48392215 79.78466797 91.91503906 C82.02820835 94.15313996 84.26624956 96.39664313 86.50390625 98.640625 C87.93978302 100.0758422 89.3759693 101.51074982 90.8125 102.9453125 C91.80781738 103.94366623 91.80781738 103.94366623 92.82324219 104.96218872 C93.44489258 105.58068695 94.06654297 106.19918518 94.70703125 106.83642578 C95.51877808 107.64697922 95.51877808 107.64697922 96.34692383 108.47390747 C98.02644435 110.08858687 98.02644435 110.08858687 100.20581055 111.57272339 C100.79789307 112.04372467 101.38997559 112.51472595 102 113 C102 113.66 102 114.32 102 115 C99.9879393 116.50140092 97.99684394 117.85629984 95.875 119.1875 C95.24118408 119.58678711 94.60736816 119.98607422 93.9543457 120.39746094 C77.00494047 130.9046247 58.21501596 138.27452491 38 138 C36.93207566 135.16861557 35.87070254 132.33501881 34.8125 129.5 C34.52052734 128.72785156 34.22855469 127.95570313 33.92773438 127.16015625 C31.7448501 121.29218778 29.82998709 115.35624971 27.98120117 109.37657166 C17.45174855 75.33832351 4.9523795 42.904759 -11 11 C-7.37 7.37 -3.74 3.74 0 0 Z " fill="#FAA58A" transform="translate(213,105)"/>
<path d="M0 0 C0.66 0 1.32 0 2 0 C19.05230057 29.14229145 29.96452198 62.47303848 39.07568359 94.83935547 C40.29889598 99.02205689 41.73272571 103.10401944 43.25 107.1875 C46 114.59795673 46 114.59795673 46 118 C15.25964165 114.43042287 -11.0364142 102.19947433 -31 78 C-31.58394531 77.42121094 -32.16789063 76.84242188 -32.76953125 76.24609375 C-35.96150938 70.41946701 -33.85678722 62.81926957 -32.125 56.75 C-31.9086792 55.98840576 -31.6923584 55.22681152 -31.46948242 54.44213867 C-25.49753104 34.71974432 -14.3732795 14.89988673 0 0 Z " fill="#FAA58A" transform="translate(194,125)"/>
<path d="M0 0 C17.1469708 19.96102509 19.1356427 50.10470343 18 75 C16.28220861 97.50306717 5.1525671 120.50757568 -10 137 C-10.44182617 137.4842041 -10.88365234 137.9684082 -11.33886719 138.46728516 C-29.81001688 158.48733779 -55.6762514 172.68052991 -83.26293945 174.17700195 C-113.44470708 174.72904041 -113.44470708 174.72904041 -128 170 C-128.69222656 169.78037598 -129.38445312 169.56075195 -130.09765625 169.33447266 C-139.43301622 166.29790184 -147.71690044 162.30243873 -156 157 C-155.34 156.67 -154.68 156.34 -154 156 C-152.16227675 156.66303359 -150.35440944 157.40910367 -148.5625 158.1875 C-120.52141691 169.1587653 -88.7723583 167.63787867 -61.21191406 155.97363281 C-49.0012791 150.59879702 -37.65666893 143.79890544 -28.2578125 134.19921875 C-26 132 -26 132 -24 132 C-23.61134766 131.12214844 -23.61134766 131.12214844 -23.21484375 130.2265625 C-21.91076952 127.83645861 -20.47455686 126.30693271 -18.5625 124.375 C-8.64125127 113.38753328 -1.76385965 99.92157045 3 86 C3.58201172 84.30037109 3.58201172 84.30037109 4.17578125 82.56640625 C12.07412033 58.1820794 12.13769772 29.76114433 0.953125 6.34765625 C0 4 0 4 0 0 Z " fill="#FAA58B" transform="translate(355,87)"/>
<path d="M0 0 C11.84072691 0.45541257 20.33733851 6.6048986 28.234375 15.0234375 C29.10835937 16.00183594 29.10835937 16.00183594 30 17 C27.29546699 21.16510461 24.41658321 25.0536471 21.3125 28.9375 C8.96769969 44.75670886 -0.26303194 62.80322226 -6 82 C-6.66 81.67 -7.32 81.34 -8 81 C-15.12932985 56.16673622 -13.1675875 28.73088853 -3 5 C-2.04804518 3.30543227 -1.06785383 1.6240277 0 0 Z " fill="#FAA58B" transform="translate(159,98)"/>
<path d="M0 0 C-2.68131869 1.7875458 -4.97445137 2.88289468 -7.9453125 4.06640625 C-26.91294218 11.7266192 -43.94731453 20.64426134 -61.0715332 31.81420898 C-62.99997566 32.99998503 -64.96091866 34.01893524 -67 35 C-67.98414433 33.08588443 -68.96213349 31.1686033 -69.9375 29.25 C-70.48277344 28.18265625 -71.02804688 27.1153125 -71.58984375 26.015625 C-73.45945718 22.0174489 -74.12738013 18.85225917 -74.09765625 14.453125 C-74.09443359 13.60878906 -74.09121094 12.76445313 -74.08789062 11.89453125 C-74.07951172 11.02183594 -74.07113281 10.14914063 -74.0625 9.25 C-74.05798828 8.36183594 -74.05347656 7.47367188 -74.04882812 6.55859375 C-74.037074 4.37232671 -74.02064249 2.18619821 -74 0 C-55.12434905 -10.16381205 -18.85502549 -10.87224847 0 0 Z " fill="#FAA58A" transform="translate(298,42)"/>
<path d="M0 0 C4.0688578 -0.12809367 7.14665168 0.29598209 10.796875 2.12109375 C11.291875 5.58609375 11.291875 5.58609375 11.796875 9.12109375 C9.61059875 11.07804033 8.34788905 12.07836568 5.37890625 12.30859375 C4.00798828 12.21578125 4.00798828 12.21578125 2.609375 12.12109375 C-14.73516321 11.71920811 -31.15407479 16.97578276 -45.203125 27.12109375 C-45.91082031 27.6315625 -46.61851563 28.14203125 -47.34765625 28.66796875 C-58.0305978 37.18060856 -64.84733213 50.45590754 -69.24609375 63.125 C-70.10312889 65.58416613 -70.90703652 67.86246896 -72.203125 70.12109375 C-75.203125 71.49609375 -75.203125 71.49609375 -78.203125 71.12109375 C-80.703125 69.80859375 -80.703125 69.80859375 -82.203125 67.12109375 C-81.9971692 51.497875 -70.1584579 34.46630625 -59.765625 23.49609375 C-43.13169721 8.07928263 -22.39661066 1.23101938 0 0 Z " fill="#535479" transform="translate(105.203125,128.87890625)"/>
<path d="M0 0 C22.75485935 -0.66926057 42.88999434 8.78797641 59.9375 23.125 C60.64519531 23.70636719 61.35289063 24.28773437 62.08203125 24.88671875 C64.75935601 27.27561977 65.86969445 28.74076857 66.5 32.3125 C65.9375 35.125 65.9375 35.125 64.8125 37.0625 C62.9375 38.125 62.9375 38.125 60.25 38.3125 C56.80481778 37.07743468 55.85804319 36.22177117 53.4375 33.625 C40.65157789 20.0338576 21.39059979 12.45501876 2.9375 11.75 C-9.98556005 12.26265032 -23.69869619 16.04697626 -34.796875 22.78515625 C-37.77951738 24.54902925 -39.6574737 24.64315618 -43.0625 24.125 C-45.46005785 22.03680445 -46.00692005 20.8475394 -46.25 17.6875 C-42.70210979 10.03152639 -30.36004978 6.87445687 -23.0625 4.125 C-15.44873925 1.75769624 -7.93664661 0.48100889 0 0 Z " fill="#535479" transform="translate(60.0625,45.875)"/>
<path d="M0 0 C0.99 0.99 0.99 0.99 2 2 C1.75 5.5625 1.75 5.5625 1 9 C-2.71422135 10.85711068 -6.30531464 10.18125892 -10.21875 9.16015625 C-11.3015625 8.79792969 -12.384375 8.43570313 -13.5 8.0625 C-31.06700554 2.22774459 -49.7876909 3.96119937 -66.4375 11.8125 C-78.28146618 18.21464388 -87.65513597 27.5401813 -95.6875 38.25 C-97 40 -97 40 -98 41 C-100.33944736 40.71269945 -102.6739143 40.38063221 -105 40 C-105.98392986 37.23269728 -106.33498765 35.86989421 -106 33 C-97.40768751 16.43838257 -79.71122886 3.06543706 -62.40625 -3.00390625 C-42.94360205 -8.6953916 -18.39374461 -10.14119402 0 0 Z " fill="#535479" transform="translate(122,99)"/>
<path d="M0 0 C0.44988281 0.88558594 0.89976562 1.77117187 1.36328125 2.68359375 C5.62747955 10.93371903 10.26089029 18.74205005 15.58129883 26.36303711 C16.04044678 27.04116455 16.49959473 27.71929199 16.97265625 28.41796875 C17.38781494 29.01375732 17.80297363 29.6095459 18.23071289 30.22338867 C19.24039233 32.55516819 18.9129665 33.66592628 18 36 C16.1875 37.8515625 16.1875 37.8515625 14 39.625 C11.04427685 41.94555299 11.04427685 41.94555299 9 45 C6 44 6 44 4.4375 41.875 C-2.66509024 33.49758587 -12.80274938 29.39908354 -23 26 C-20.30093381 18.52867185 -8.59800264 0 0 0 Z " fill="#F9A48A" transform="translate(188,63)"/>
<path d="M0 0 C0.01417969 0.90878906 0.02835938 1.81757812 0.04296875 2.75390625 C0.43909555 13.19238276 1.93912315 23.69737213 7.7265625 32.6796875 C9 35 9 35 8.80224609 36.97314453 C7.80113916 39.50241712 6.69377669 40.27316435 4.4375 41.75 C3.79683594 42.17796875 3.15617187 42.6059375 2.49609375 43.046875 C1.75552734 43.51867187 1.75552734 43.51867187 1 44 C-6.37870075 33.35583168 -12.86152779 22.40188562 -19 11 C-15.70700344 7.48547458 -12.62341575 4.95215137 -8.375 2.6875 C-6.96347656 1.91986328 -6.96347656 1.91986328 -5.5234375 1.13671875 C-3 0 -3 0 0 0 Z " fill="#F7A48B" transform="translate(214,46)"/>
</svg>
